<?xml version="1.0" standalone="no"?>
<!DOCTYPE svg PUBLIC "-//W3C//DTD SVG 20010904//EN"
 "http://www.w3.org/TR/2001/REC-SVG-20010904/DTD/svg10.dtd">
<svg version="1.0" xmlns="http://www.w3.org/2000/svg"
 width="512.000000pt" height="512.000000pt" viewBox="0 0 512.000000 512.000000"
 preserveAspectRatio="xMidYMid meet">
<metadata>
Created by potrace 1.14, written by Peter Selinger 2001-2017
</metadata>
<g transform="translate(0.000000,512.000000) scale(0.100000,-0.100000)"
fill="#000000" stroke="none">
<path d="M2393 4810 c-109 -22 -176 -91 -177 -183 -1 -29 -5 -55 -11 -59 -5
-5 -44 -5 -84 -1 -64 5 -81 11 -117 39 -85 64 -233 95 -362 75 -218 -34 -366
-164 -367 -323 l0 -58 -46 -15 c-86 -29 -159 -111 -159 -179 0 -13 15 -80 34
-147 18 -68 36 -139 39 -156 l6 -33 -63 0 c-87 0 -106 -16 -121 -106 -6 -38
-67 -450 -136 -916 l-124 -847 -183 -3 c-168 -3 -185 -5 -198 -22 -12 -17 -14
-139 -14 -776 0 -721 1 -758 18 -773 17 -16 182 -17 2169 -17 2142 0 2150 0
2168 20 28 31 23 64 -32 200 -112 275 -180 536 -219 830 -23 176 -23 470 2
615 10 61 18 133 19 160 l0 50 -55 27 c-69 33 -188 65 -302 79 -99 13 -99 13
-72 92 l16 46 51 -34 c29 -19 72 -39 97 -46 40 -10 52 -9 105 11 74 27 76 27
150 0 145 -53 323 28 370 169 21 63 17 149 -9 202 -43 90 -151 157 -260 163
-34 2 -77 11 -94 20 -40 21 -105 20 -149 -1 -39 -18 -73 -65 -73 -100 0 -29
-2 -28 -48 1 -146 96 -349 13 -376 -155 -4 -26 -15 -44 -36 -59 -61 -43 -71
-93 -45 -215 25 -118 25 -119 -47 -134 -84 -17 -188 -59 -217 -87 l-25 -23 25
-128 c22 -117 24 -151 23 -403 -1 -151 -6 -288 -11 -305 -8 -27 -11 -18 -26
75 -48 306 -67 539 -67 804 0 219 11 362 42 528 19 106 20 119 6 140 -20 30
-146 80 -282 113 -54 14 -101 27 -104 30 -8 8 68 232 82 245 17 14 70 -3 229
-75 149 -66 203 -75 317 -51 41 8 105 31 142 50 l67 35 58 -30 c102 -52 209
-72 348 -67 193 8 334 66 440 180 73 78 98 146 93 253 -4 100 -36 170 -112
247 -102 105 -258 161 -451 163 -102 1 -127 5 -168 24 -80 37 -165 47 -243 27
-112 -27 -174 -91 -174 -177 0 -57 -7 -60 -97 -52 -54 5 -78 13 -124 43 -181
117 -487 91 -632 -55 -54 -54 -78 -101 -92 -184 -11 -64 -11 -65 -52 -78 -58
-20 -128 -84 -148 -137 -17 -43 -17 -44 19 -154 20 -61 39 -135 42 -165 l7
-55 -59 -12 c-158 -32 -322 -92 -333 -123 -5 -14 -1 -56 9 -109 30 -148 41
-273 47 -560 l6 -278 -139 0 -139 0 -129 878 c-70 482 -132 895 -137 917 -9
45 -39 75 -76 75 -23 0 -24 3 -18 33 4 17 22 73 39 122 l33 90 39 -1 c25 0 83
-21 160 -57 67 -30 139 -60 160 -66 103 -29 254 3 367 76 27 18 28 17 75 -9
97 -54 184 -73 332 -72 118 1 145 4 216 27 144 48 259 141 311 252 24 52 28
72 28 150 0 116 -28 179 -117 269 -109 109 -237 156 -440 162 -109 4 -133 7
-175 28 -45 23 -146 47 -182 45 -9 -1 -35 -5 -58 -9z m187 -163 c19 -10 49
-26 66 -37 28 -18 37 -19 90 -9 139 26 346 -34 438 -126 130 -130 84 -315
-101 -408 -86 -44 -160 -60 -268 -59 -122 0 -206 24 -293 82 -33 22 -68 40
-79 40 -11 0 -36 -16 -57 -36 -60 -58 -137 -88 -231 -89 -78 0 -84 2 -213 63
-157 74 -215 89 -277 72 -24 -7 -53 -22 -64 -34 -33 -35 -97 -203 -125 -329
l-7 -28 -82 3 -81 3 -13 74 c-7 41 -24 117 -39 169 -19 68 -24 99 -17 111 13
21 85 48 146 56 36 5 51 12 64 32 16 24 16 28 0 73 -21 58 -21 92 -3 128 41
79 150 134 277 140 113 6 181 -14 253 -72 l53 -44 99 0 c77 0 116 5 176 24
100 32 118 62 81 138 -18 39 -10 59 32 77 30 13 135 5 175 -14z m1463 -805
c54 -30 56 -31 163 -25 127 6 210 -9 304 -57 124 -62 176 -137 168 -241 -8
-107 -98 -198 -243 -245 -67 -22 -98 -27 -190 -27 -132 1 -212 22 -303 83 -33
22 -66 40 -73 40 -8 0 -40 -19 -72 -43 -64 -48 -126 -73 -202 -83 -56 -7 -92
4 -266 80 -166 72 -242 78 -304 23 -27 -24 -95 -187 -116 -279 l-14 -58 -82 0
-82 0 -11 43 c-6 23 -26 92 -45 152 l-35 110 29 27 c19 17 50 30 88 38 32 6
67 13 79 15 33 7 47 49 29 92 -34 81 -9 152 71 203 74 47 139 64 234 64 98 0
169 -26 236 -86 l39 -35 102 2 c149 4 273 49 273 101 0 9 -8 32 -17 51 -30 63
14 96 119 90 51 -3 79 -11 121 -35z m-2468 -234 c2 -13 59 -387 125 -833 66
-445 123 -825 126 -842 l6 -33 -491 0 c-386 0 -491 3 -491 13 0 6 57 396 127
865 l127 852 233 0 233 0 5 -22z m1445 -763 c129 -22 260 -65 260 -84 0 -9 -7
-56 -15 -106 -89 -537 15 -1424 244 -2087 23 -65 41 -120 41 -123 0 -3 -337
-5 -750 -5 -412 0 -750 2 -750 4 0 2 24 66 54 143 114 294 202 607 236 843 50
351 52 899 5 1224 -8 55 -15 105 -15 111 0 14 118 51 240 76 110 22 334 24
450 4z m1390 -65 c19 -15 41 -20 93 -20 114 0 177 -48 177 -135 0 -76 -67
-135 -155 -135 -50 0 -74 9 -118 46 -38 32 -67 30 -112 -6 -58 -46 -77 -47
-151 -9 -45 22 -84 34 -123 37 -54 4 -59 2 -82 -26 -15 -17 -35 -65 -49 -117
-13 -49 -25 -84 -27 -79 -12 41 -31 158 -27 165 3 5 14 9 24 9 26 0 71 41 72
65 1 11 -2 35 -6 53 -7 28 -4 36 27 67 49 49 99 49 157 0 37 -31 49 -35 96
-35 71 0 139 31 152 69 6 17 6 34 1 42 -22 34 11 40 51 9z m-334 -621 c105
-14 234 -56 234 -75 0 -8 -8 -58 -17 -112 -26 -151 -23 -512 6 -702 39 -260
95 -478 181 -706 22 -59 40 -111 40 -115 0 -5 -182 -9 -406 -9 l-405 0 -24 54
c-27 61 -115 324 -135 402 -12 46 -11 64 8 156 46 224 56 340 55 613 0 183 -5
285 -15 343 l-15 83 26 13 c30 16 178 53 231 59 74 8 161 7 236 -4z m-1850
-501 c-20 -311 -109 -664 -266 -1063 l-62 -156 -52 3 -51 3 -2 310 c-3 302 -3
310 -24 328 -20 16 -60 17 -519 17 -475 0 -499 -1 -521 -19 l-24 -19 -3 -311
-3 -312 -127 3 -127 3 -3 658 -2 657 896 0 897 0 -7 -102z m-576 -958 l0 -260
-410 0 -410 0 0 260 0 260 410 0 410 0 0 -260z"/>
</g>
</svg>
